<?xml version="1.0" encoding="utf-8"?>
<!-- Generator: Adobe Illustrator 16.0.0, SVG Export Plug-In . SVG Version: 6.00 Build 0)  -->
<!DOCTYPE svg PUBLIC "-//W3C//DTD SVG 1.1//EN" "http://www.w3.org/Graphics/SVG/1.1/DTD/svg11.dtd">
<svg version="1.1" id="Capa_1" xmlns="http://www.w3.org/2000/svg" xmlns:xlink="http://www.w3.org/1999/xlink" x="0px" y="0px"
	 width="1225.73px" height="1087.52px" viewBox="0 0 1225.73 1087.52" enable-background="new 0 0 1225.73 1087.52"
	 xml:space="preserve">
<g>
	<defs>
		<rect id="SVGID_1_" y="0.003" width="1225.734" height="1087.517"/>
	</defs>
	<clipPath id="SVGID_2_">
		<use xlink:href="#SVGID_1_"  overflow="visible"/>
	</clipPath>
	<path clip-path="url(#SVGID_2_)" d="M1189.447,373.347c-11.836-18.301-23.606-35.591-33.991-50.846
		c-16.344-24.011-33.244-48.839-37.869-59.845c-1.421-3.383-2.141-5.803-2.505-7.367c1.646-1.789,4.084-4.147,5.882-5.884
		c8.17-7.9,19.361-18.719,26.143-35.273c5.86-14.311,7.047-29.733,3.43-44.601c-3.034-12.468-9.33-24.106-18.713-34.589
		c-7.364-8.229-16.129-15.021-26.052-20.19c-1.554-0.809-2.865-1.422-3.586-1.759c-0.623-0.296-1.225-0.572-1.829-0.841
		c-1.393-0.616-2.586-1.098-3.471-1.448c-0.016-0.007-0.031-0.013-0.048-0.019c-0.636-0.252-1.272-0.498-1.916-0.737
		c-1.166-0.433-2.335-0.841-3.492-1.221c-0.65-0.214-1.319-0.424-1.989-0.628c-0.871-0.266-2.07-0.625-3.504-1.004
		c-0.623-0.165-1.235-0.317-1.848-0.463c-3.976-0.972-8.052-1.71-12.145-2.199c-0.669-0.084-1.314-0.159-1.963-0.224
		c-1.412-0.142-2.589-0.222-3.291-0.27l-0.052-0.003l-0.074-0.006c-0.692-0.048-1.383-0.091-2.079-0.125
		c-1.019-0.049-2.054-0.082-3.186-0.103c-0.679-0.013-1.352-0.019-2.026-0.019h-0.21h0.089c-0.053,0-0.104,0-0.155,0.001
		c-1.093,0.002-2.094,0.018-3.059,0.047c-0.777,0.024-1.542,0.059-2.31,0.099l-0.066,0.003l-0.133,0.007
		c-0.611,0.031-1.637,0.084-2.864,0.18c-0.744,0.058-1.518,0.131-2.289,0.211l-0.121,0.013c-1.588,0.159-3.163,0.348-4.702,0.566
		l-0.155,0.022c-0.618,0.086-1.652,0.231-2.896,0.44c-0.818,0.138-1.629,0.289-2.44,0.447l-0.137,0.027l-0.126,0.024
		c-0.85,0.162-1.697,0.329-2.55,0.512c-0.824,0.177-1.643,0.366-2.459,0.561l-0.088,0.021c-0.878,0.208-1.765,0.426-2.653,0.658
		c-0.834,0.218-1.658,0.443-2.485,0.677c-0.87,0.246-1.782,0.517-2.695,0.799l-0.082,0.025c-0.757,0.233-1.515,0.47-2.273,0.72
		c-1.132,0.373-2.098,0.714-2.914,1.005l-0.078,0.027c-0.664,0.233-1.325,0.47-1.989,0.72c-1.506,0.565-3.028,1.17-4.52,1.794
		c-0.514,0.216-1.005,0.428-1.494,0.644l-0.01,0.004c-1.324,0.573-2.487,1.096-3.628,1.632c-0.571,0.268-1.167,0.557-1.76,0.85
		l-0.119,0.059c-0.74,0.36-1.771,0.868-2.939,1.474c-0.655,0.341-1.301,0.686-1.944,1.033c-0.949,0.512-1.908,1.043-2.838,1.573
		c-0.652,0.372-1.276,0.732-1.899,1.1c-0.521,0.308-1.054,0.63-1.604,0.966c-7.924-5.45-16.939-9.34-26.546-11.279l-12.552-2.591
		c-0.236-0.049-0.473-0.096-0.71-0.142c-4.524-0.877-9.147-1.322-13.746-1.322c-16.645,0-32.882,5.908-45.701,16.401
		c-8.627-3.606-18.073-5.565-27.914-5.565c-4.536,0-9.021,0.425-13.411,1.245l4.555-32.875c3.044-22.011-3.463-44.105-17.854-60.625
		C826.477,9.433,805.657,0.004,783.68,0.002h-0.006c-2.61,0-5.257,0.135-7.862,0.399l-26.19,2.658
		c-17.563,1.782-34.302,9.599-47.13,22.009C689.766,37.381,681.4,53.73,678.938,71.104l-1.115,7.86
		c-7.153-2.217-14.745-3.404-22.588-3.404c-2.599,0-5.232,0.134-7.828,0.397l-31.58,3.204c-11.772,1.195-23.171,5.113-33.275,11.298
		c-8.421-3.141-17.432-4.819-26.643-4.819c-2.611,0-5.257,0.134-7.864,0.399L435.569,97.452
		c-11.888,1.206-23.382,5.182-33.551,11.465c-8.502-3.212-17.616-4.928-26.949-4.928c-2.607,0-5.25,0.134-7.855,0.398l-34.318,3.482
		c-17.539,1.781-34.258,9.579-47.077,21.958c-0.83,0.8-1.637,1.619-2.428,2.452c-3.802-1.758-7.761-3.348-11.894-4.743
		c-13.98-4.718-29.694-7.333-48.041-7.995c-0.72-0.026-1.442-0.039-2.164-0.039c-2.022,0-4.044,0.102-6.056,0.306l-91.474,9.281
		c-17.538,1.781-34.257,9.579-47.077,21.958c-12.715,12.279-21.091,28.59-23.584,45.929L26.843,379.575L0.799,560.683
		c-1.232,8.571-1.039,17.188,0.576,25.604c0.538,2.807,1.245,5.623,2.1,8.357c0.417,1.336,0.89,2.715,1.397,4.063
		c6.157,16.384,17.898,30.187,33.058,38.867c2.943,1.686,6.043,3.188,9.222,4.473c0.532,0.217,1.296,0.522,2.239,0.87
		c8.445,3.099,17.293,4.665,26.325,4.665c2.609,0,5.254-0.135,7.86-0.399l88.414-8.971c1.996-0.202,4.014-0.448,5.997-0.729
		c23.455-3.327,45.073-12.042,63.391-24.734c6.453,4.507,13.625,8.012,21.284,10.335c0.025,0.007,0.049,0.015,0.074,0.021
		c0.5,0.152,0.998,0.295,1.503,0.434c4.056,1.134,8.223,1.933,12.415,2.382c2.042,0.218,4.098,0.355,6.127,0.411
		c0.415,0.013,0.829,0.021,1.246,0.025c0.288,0.003,0.555,0.005,0.824,0.005c2.609,0,5.256-0.134,7.863-0.398l9.076-0.921
		l-15.516,117.272l-29.063,219.653c-2.901,21.926,3.683,43.915,18.065,60.326c14.313,16.332,35.08,25.699,56.974,25.699
		c2.611,0,5.256-0.135,7.861-0.398l34.231-3.473c6.944-0.706,13.775-2.341,20.31-4.858c13.199-5.086,24.87-13.652,33.749-24.771
		c6.376-7.985,11.121-17.043,14.033-26.68c0.241,0.485,0.476,0.974,0.728,1.454c0.591,1.129,1.542,2.899,2.859,5.004
		c6.923,11.071,16.604,20.148,28.067,26.329c0.648,0.356,1.303,0.7,1.97,1.035c0.027,0.013,0.054,0.027,0.082,0.041
		c10.471,5.237,22.247,8.005,34.054,8.005c2.612,0,5.257-0.134,7.864-0.399l10.566-1.071c1.388,6.306,3.57,12.437,6.552,18.267
		c2.615,5.112,5.815,9.923,9.513,14.3c13.12,15.534,32.352,25.219,52.767,26.572c1.396,0.093,2.824,0.148,4.238,0.164
		c0.288,0.003,0.576,0.005,0.864,0.005c2.614,0,5.262-0.135,7.871-0.4l29.857-3.029c4.66-0.473,9.319-1.374,13.838-2.68
		c14.808-4.277,28.013-12.75,38.185-24.5c10.386-12.002,16.898-26.589,18.839-42.193l1.59-12.622
		c6.819,1.952,13.92,2.958,21.073,2.958c0.27,0,0.54-0.002,0.809-0.005c2.358-0.025,4.72-0.158,7.046-0.395l30.116-3.056
		c2.326-0.236,4.663-0.58,6.954-1.023c16.178-3.131,30.977-11.327,42.322-23.154c0.627,0.324,1.242,0.661,1.879,0.974
		c16.968,8.357,37.058,12.594,59.711,12.594c2.562,0,5.201-0.053,7.841-0.158c2.29-0.093,4.602-0.223,6.871-0.387
		c2.211-0.16,4.479-0.356,6.742-0.587l26.432-2.682c2.909-0.295,5.79-0.802,8.624-1.518c3.28-0.826,6.617-1.743,9.916-2.724
		c2.163-0.642,4.11-1.247,5.948-1.847c0.221-0.073,0.442-0.147,0.665-0.223c32.628-10.769,58.145-27.721,75.805-50.377
		c1.149-1.473,2.283-2.996,3.366-4.521c2.166-3.049,4.223-6.24,6.107-9.475c0.949-1.627,1.868-3.29,2.736-4.948
		c6.821-13.023,11.352-27.297,13.465-42.424l12.047-86.252l14.826-106.147l1.158-8.291c7.468,2.751,15.432,4.225,23.577,4.225
		c19.264,0,37.713-8.278,50.616-22.714c20.091-22.478,46.67-59.075,59.202-105.779
		C1234.196,486.014,1224.118,426.948,1189.447,373.347"/>
	<path clip-path="url(#SVGID_2_)" d="M1083.994,106.608c0.031,0.007,0.063,0.016,0.096,0.024c0.011,0.003,0.023,0.005,0.035,0.008
		L1083.994,106.608z"/>
	<path clip-path="url(#SVGID_2_)" fill="#FFFFFF" d="M263.424,341.241l15.547-111.309c4.651-33.287-14.999-48.889-57.678-50.43
		l-91.474,9.281c-8.695,0.883-16.074,8.008-17.329,16.734L60.188,569.224c-1.541,10.715,6.652,19.351,17.328,18.268l88.416-8.972
		c38.981-3.955,68.827-32.059,73.439-65.078l15.548-111.31c1.851-13.256-7.279-22.735-10.988-30.1
		C248.965,369.921,260.929,359.102,263.424,341.241 M172.599,511.012l-36.041,3.657l13.619-97.507l36.041-3.657L172.599,511.012z
		 M196.028,343.277l-36.041,3.657l13.562-97.101l36.042-3.657L196.028,343.277z"/>
	<path clip-path="url(#SVGID_2_)" fill="#FFFFFF" d="M781.874,60.094l-26.195,2.658c-8.709,0.884-16.097,8.029-17.334,16.77
		l-35.96,253.595l-31.661-184.624c-1.42-8.281-8.721-13.709-17.271-12.842l-31.568,3.203c-8.69,0.882-16.066,7.999-17.326,16.719
		L554.55,518.276c-1.55,10.721,6.643,19.367,17.327,18.283l29.869-3.031c8.838-0.897,16.29-8.233,17.38-17.108l23.851-198.885
		l32.353,194.619c1.384,8.323,8.702,13.795,17.283,12.925l30.133-3.058c8.733-0.886,16.131-8.065,17.343-16.83l59.129-426.926
		C800.693,67.586,792.513,59.016,781.874,60.094"/>
	<path clip-path="url(#SVGID_2_)" fill="#FFFFFF" d="M373.268,164.082l-34.315,3.482c-8.697,0.882-16.075,8.007-17.33,16.734
		l-52.301,363.706c-1.541,10.715,6.651,19.351,17.329,18.268l34.316-3.481c8.695-0.882,16.073-8.008,17.328-16.734l52.302-363.706
		C392.138,171.633,383.946,162.998,373.268,164.082"/>
	<path clip-path="url(#SVGID_2_)" fill="#FFFFFF" d="M550.29,211.686c8.831-0.896,16.279-8.222,17.375-17.091l3.823-30.955
		c1.307-10.578-6.844-18.977-17.377-17.908l-112.485,11.413c-8.764,0.89-16.178,8.116-17.354,16.913l-48.565,363.328
		c-1.424,10.647,6.748,19.166,17.354,18.088l112.12-11.376c8.832-0.896,16.281-8.225,17.377-17.093l3.823-30.954
		c1.306-10.578-6.843-18.977-17.377-17.908l-62.175,6.309l16.402-100.015l50.151-5.088c8.832-0.896,16.281-8.225,17.377-17.093
		l3.823-30.954c1.307-10.578-6.843-18.977-17.377-17.908l-45.772,4.644l12.301-99.598L550.29,211.686z"/>
	<path clip-path="url(#SVGID_2_)" fill="#FFFFFF" d="M953.35,208.438l11.258-20.548c3.834-7.265-0.408-16.193-8.436-17.748
		l-12.724-2.627c-7.684-1.488-14.74,4.612-14.438,12.482l0.902,23.455C929.702,217.125,945.904,221.734,953.35,208.438"/>
	<path clip-path="url(#SVGID_2_)" fill="#FFFFFF" d="M837.941,261.528l-19.104-11.657c-6.767-3.973-15.861,0.302-18.081,8.497
		l-3.675,12.992c-2.123,7.845,3.225,15.105,10.941,14.852l23.003-0.753C844.373,285.772,850.288,269.238,837.941,261.528"/>
	<path clip-path="url(#SVGID_2_)" fill="#FFFFFF" d="M1139.068,405.934c-33.558-51.881-66.237-94.904-76.798-120.037
		c-32.504-77.366,52.002-80.598,24.845-110.94c-16.902-18.886-54.516-14.453-81.676,16.162
		c-27.706,31.23-22.891,56.483-20.403,64.266c0.481,1.509,1.356,2.854,2.551,3.893l14.369,12.517
		c1.721,1.499-0.052,4.243-2.118,3.277c-12.356-5.77-25.674-11.45-39.055-15.434c-13.197-3.93-56.065-18.3-80.399,15.256
		c-15.278,21.069,8.164,39.175,23.533,48.113c3.551,2.065,1.479,7.476-2.557,6.711c-9.407-1.783-17.926-7.496-23.654-12.24
		c-3.722-3.082-9.364-1.02-10.344,3.715c-8.549,41.315,19.165,62.347,36.803,71.316c3.645,1.853,1.911,7.358-2.145,6.841
		c-9.752-1.243-18.647-5.835-24.917-9.932c-4.353-2.846-10.183,0.395-10.034,5.6c0.79,27.55,19.068,41.272,32.914,47.735
		c3.759,1.754,2.138,7.405-1.979,6.91c-3.283-0.395-6.905-1.207-10.753-2.661c-3.073-1.16-5.654,2.567-3.572,5.11
		c72.699,80.327,141.661,31.481,166.089,12.59c2.19-1.693,4.952,1.402,3.281,3.609c-2.558,3.38-6.144,8.314-15.443,16.827
		c64.7,30.049,67.922,85.406,63.147,118.303c-1.143,7.867,8.606,12.438,13.9,6.514
		C1146.238,574.62,1197.569,496.378,1139.068,405.934"/>
	<path clip-path="url(#SVGID_2_)" fill="#FFFFFF" d="M885.149,208.011l-6.501-21.921c-2.402-7.642-11.787-10.418-18.655-5.517
		l-11.005,7.662c-6.574,4.692-7.313,13.945-1.511,18.932l17.297,14.862C874.33,231.236,889.238,222.316,885.149,208.011"/>
	<path clip-path="url(#SVGID_2_)" fill="#FFC103" d="M1035.372,557.5c-7.32-24.869-31.136-35.259-71.444-31.168l-9.611,0.974
		c-54.462,5.526-85.208,33.458-92.238,83.794l-35.291,252.658c-6.955,49.797,16.8,71.931,71.261,66.404l26.43-2.682
		c44.194-11.15,68.616-33.374,73.265-66.662l39.373-281.886C1037.683,574.874,1037.101,567.73,1035.372,557.5 M932.034,857.708
		l-36.039,3.68l36.484-262.424l36.038-3.68L932.034,857.708z"/>
	<path clip-path="url(#SVGID_2_)" fill="#FFC103" d="M491.192,644.124c8.881-0.901,16.355-8.301,17.394-17.22l4.08-35.078
		c1.224-10.528-6.911-18.844-17.393-17.781L382.665,585.47c-8.773,0.891-16.192,8.13-17.357,16.938l-48.614,367.43
		c-1.408,10.638,6.761,19.139,17.356,18.064l34.236-3.474c8.832-0.896,16.282-8.225,17.378-17.094l18.585-150.473l50.151-5.089
		c8.832-0.896,16.281-8.225,17.377-17.094l3.823-30.953c1.307-10.577-6.843-18.977-17.377-17.907l-45.773,4.644l12.303-99.598
		L491.192,644.124z"/>
	<path clip-path="url(#SVGID_2_)" fill="#FFC103" d="M593.06,561.046l-30.263,3.07c-8.758,0.889-16.171,8.108-17.352,16.9
		L494.642,951.49c-1.433,10.652,6.74,19.178,17.352,18.101l30.262-3.07c8.759-0.889,16.171-8.107,17.353-16.899l50.804-370.473
		C611.844,568.496,603.67,559.969,593.06,561.046"/>
	<path clip-path="url(#SVGID_2_)" fill="#FFC103" d="M824.853,477.448l-26.194,2.658c-8.709,0.884-16.097,8.029-17.334,16.77
		l-35.96,253.595l-31.661-184.624c-1.421-8.281-8.721-13.709-17.271-12.842l-31.568,3.202c-8.69,0.883-16.066,8-17.327,16.721
		l-60.505,436.217c-1.55,10.722,6.644,19.367,17.328,18.283l29.869-3.031c8.837-0.896,16.29-8.233,17.379-17.108l34.348-272.398
		l32.354,197.146c1.385,8.324,8.701,13.796,17.283,12.926l30.133-3.058c8.732-0.886,16.131-8.065,17.344-16.831l59.128-429.456
		C843.673,484.94,835.492,476.369,824.853,477.448"/>
</g>
<g>
	<defs>
		<path id="SVGID_3_" d="M395.637,742.105c-11.155,1.393-22.517,3.089-34.1,5.127c-3.237,0.569-5.725,3.189-6.157,6.447
			L326.606,971.15c-0.259,1.966,0.206,3.746,1.314,5.009c0.735,0.837,2.081,1.836,4.331,1.836c0.258,0,0.523-0.014,0.789-0.041
			l34.236-3.474c4.219-0.428,7.937-4.104,8.462-8.37l18.586-150.473c0.573-4.631,4.272-8.252,8.916-8.724l50.15-5.089
			c4.219-0.428,7.936-4.104,8.462-8.37l3.823-30.953c0.241-1.947-0.235-3.707-1.337-4.954c-0.734-0.83-2.078-1.819-4.317-1.819
			c-0.257,0-0.522,0.013-0.789,0.04l-45.773,4.645c-0.337,0.034-0.675,0.052-1.01,0.052c-3.748,0-7.312-2.109-9.05-5.732
			c-0.849-1.769-1.086-3.771-0.846-5.716c0.462-3.743-2.479-6.959-6.133-6.959C396.162,742.057,395.901,742.073,395.637,742.105"/>
	</defs>
	<clipPath id="SVGID_4_">
		<use xlink:href="#SVGID_3_"  overflow="visible"/>
	</clipPath>
	
		<linearGradient id="SVGID_5_" gradientUnits="userSpaceOnUse" x1="0" y1="1087.52" x2="1" y2="1087.52" gradientTransform="matrix(0 -235.9379 -235.9379 0 256983.2656 977.9848)">
		<stop  offset="0" style="stop-color:#FFC103"/>
		<stop  offset="1" style="stop-color:#FFA303"/>
	</linearGradient>
	<rect x="326.347" y="742.057" clip-path="url(#SVGID_4_)" fill="url(#SVGID_5_)" width="139.569" height="235.938"/>
</g>
<g>
	<defs>
		<path id="SVGID_6_" d="M532.992,745.439l-28.443,207.41c-0.262,1.944,0.203,3.727,1.311,4.995
			c0.735,0.838,2.082,1.839,4.335,1.839c0.257,0,0.524-0.013,0.79-0.041l30.261-3.071c4.172-0.423,7.884-4.061,8.452-8.282
			l27.195-198.317c0.582-4.247-2.479-8.124-6.744-8.548c-9.56-0.948-19.26-1.793-29.116-2.494c-0.182-0.013-0.364-0.02-0.545-0.02
			C536.738,738.91,533.509,741.668,532.992,745.439"/>
	</defs>
	<clipPath id="SVGID_7_">
		<use xlink:href="#SVGID_6_"  overflow="visible"/>
	</clipPath>
	
		<linearGradient id="SVGID_8_" gradientUnits="userSpaceOnUse" x1="-4.882813e-004" y1="1087.52" x2="0.9995" y2="1087.52" gradientTransform="matrix(0 -220.7731 -220.7731 0 240635.8438 959.6303)">
		<stop  offset="0" style="stop-color:#FFC103"/>
		<stop  offset="1" style="stop-color:#FFA303"/>
	</linearGradient>
	<rect x="504.287" y="738.91" clip-path="url(#SVGID_7_)" fill="url(#SVGID_8_)" width="73.188" height="220.773"/>
</g>
<g>
	<defs>
		<path id="SVGID_9_" d="M632.174,756.47l-35.237,254.05c-0.002,0.018-0.005,0.037-0.007,0.056c-0.289,1.993,0.166,3.8,1.279,5.085
			c0.735,0.849,2.086,1.859,4.35,1.859c0.257,0,0.525-0.014,0.791-0.041l29.869-3.031c4.223-0.428,7.939-4.107,8.463-8.377
			l30.79-244.185c0.519-4.119-2.38-7.881-6.495-8.434c-8.349-1.122-16.78-2.274-25.305-3.431c-0.343-0.047-0.685-0.069-1.022-0.069
			C635.936,749.952,632.699,752.692,632.174,756.47"/>
	</defs>
	<clipPath id="SVGID_10_">
		<use xlink:href="#SVGID_9_"  overflow="visible"/>
	</clipPath>
	
		<linearGradient id="SVGID_11_" gradientUnits="userSpaceOnUse" x1="4.882813e-004" y1="1087.52" x2="1.0005" y2="1087.52" gradientTransform="matrix(0 -267.5672 -267.5672 0 291619.4375 1017.5212)">
		<stop  offset="0" style="stop-color:#FFC103"/>
		<stop  offset="1" style="stop-color:#FFA303"/>
	</linearGradient>
	<rect x="596.641" y="749.952" clip-path="url(#SVGID_10_)" fill="url(#SVGID_11_)" width="76.349" height="267.568"/>
</g>
<g>
	<defs>
		<path id="SVGID_12_" d="M701.465,767.652l26.712,162.767c0.467,2.807,2.681,4.635,5.633,4.635c0.253,0,0.514-0.015,0.773-0.04
			l30.133-3.058c4.155-0.422,7.865-4.046,8.445-8.251l20.896-151.763c0.629-4.579-2.963-8.63-7.586-8.578
			c-25.267,0.286-50.699-1.576-76.717-4.439c-0.285-0.032-0.568-0.047-0.847-0.047C704.324,758.877,700.701,762.999,701.465,767.652
			"/>
	</defs>
	<clipPath id="SVGID_13_">
		<use xlink:href="#SVGID_12_"  overflow="visible"/>
	</clipPath>
	
		<linearGradient id="SVGID_14_" gradientUnits="userSpaceOnUse" x1="4.882813e-004" y1="1087.522" x2="1.0005" y2="1087.522" gradientTransform="matrix(0 -176.176 -176.176 0 192342.7344 935.1132)">
		<stop  offset="0" style="stop-color:#FFC103"/>
		<stop  offset="1" style="stop-color:#FFA303"/>
	</linearGradient>
	<rect x="700.701" y="758.877" clip-path="url(#SVGID_13_)" fill="url(#SVGID_14_)" width="93.984" height="176.176"/>
</g>
<g>
	<defs>
		<path id="SVGID_15_" d="M998.579,689.28c-11.297,8.472-22.425,16.05-33.412,22.816c-1.928,1.187-3.232,3.161-3.544,5.402
			L941.94,859.085c-0.636,4.563-4.307,8.102-8.891,8.569l-36.038,3.682c-0.34,0.033-0.679,0.051-1.016,0.051
			c-3.779,0-7.367-2.142-9.088-5.813c-0.844-1.795-1.06-3.822-0.786-5.786l14.539-104.581c0.771-5.544-4.536-9.947-9.855-8.207
			c-11.355,3.717-22.627,6.697-33.852,9.046c-3.11,0.649-5.47,3.19-5.91,6.338l-14.352,102.758
			c-2.761,19.754-0.246,34.266,7.469,43.136c7.341,8.436,20.287,12.712,38.483,12.712c4.471,0,9.313-0.261,14.393-0.775
			l25.693-2.607c39.768-10.19,61.064-29.224,65.108-58.171l22.779-163.088c0.686-4.908-3.242-8.609-7.512-8.61
			C1001.575,687.738,1000.001,688.214,998.579,689.28"/>
	</defs>
	<clipPath id="SVGID_16_">
		<use xlink:href="#SVGID_15_"  overflow="visible"/>
	</clipPath>
	
		<linearGradient id="SVGID_17_" gradientUnits="userSpaceOnUse" x1="4.882813e-004" y1="1087.522" x2="1.0005" y2="1087.522" gradientTransform="matrix(0 -233.252 -233.252 0 254589.4063 921.0214)">
		<stop  offset="0" style="stop-color:#FFC103"/>
		<stop  offset="1" style="stop-color:#FFA303"/>
	</linearGradient>
	<rect x="833.932" y="687.738" clip-path="url(#SVGID_16_)" fill="url(#SVGID_17_)" width="177.372" height="233.252"/>
</g>
<g>
	<defs>
		<path id="SVGID_18_" d="M129.355,521.605c-2.13-2.211-3.126-5.278-2.702-8.319l13.621-97.507c0.636-4.563,4.309-8.101,8.894-8.566
			l36.04-3.657c0.339-0.034,0.675-0.051,1.011-0.051c2.703,0,5.307,1.096,7.203,3.063c2.129,2.212,3.125,5.28,2.701,8.321
			l-13.621,97.507c-0.636,4.563-4.309,8.1-8.893,8.565l-36.041,3.657c-0.338,0.034-0.675,0.051-1.011,0.051
			C133.855,524.669,131.25,523.573,129.355,521.605 M102.031,385.283c-3.233,0.542-5.738,3.13-6.205,6.375L70.087,570.647
			c-0.287,1.991,0.169,3.795,1.282,5.079c0.734,0.848,2.085,1.858,4.347,1.858c0.259,0,0.525-0.016,0.791-0.042l88.417-8.972
			c33.298-3.379,60.442-27.146,64.544-56.513l15.547-111.309c0.911-6.523-2.568-12.017-6.25-17.833
			c-0.537-0.847-1.252-2.061-1.931-3.238c-1.325-2.299-3.75-3.747-6.404-3.792c-4.264-0.072-8.562-0.109-12.887-0.109
			C181.419,375.776,143.123,378.395,102.031,385.283"/>
	</defs>
	<clipPath id="SVGID_19_">
		<use xlink:href="#SVGID_18_"  overflow="visible"/>
	</clipPath>
	
		<linearGradient id="SVGID_20_" gradientUnits="userSpaceOnUse" x1="-4.882813e-004" y1="1087.5181" x2="0.9995" y2="1087.5181" gradientTransform="matrix(0 -201.8067 -201.8067 0 219626.3906 577.5778)">
		<stop  offset="0" style="stop-color:#FFFFFF"/>
		<stop  offset="1" style="stop-color:#DEDEDE"/>
	</linearGradient>
	<rect x="69.8" y="375.776" clip-path="url(#SVGID_19_)" fill="url(#SVGID_20_)" width="176.126" height="201.809"/>
</g>
<g>
	<defs>
		<polygon id="SVGID_21_" points="172.599,511.012 136.558,514.669 172.599,511.012 186.218,413.506 		"/>
	</defs>
	<clipPath id="SVGID_22_">
		<use xlink:href="#SVGID_21_"  overflow="visible"/>
	</clipPath>
	
		<linearGradient id="SVGID_23_" gradientUnits="userSpaceOnUse" x1="0" y1="1087.52" x2="1" y2="1087.52" gradientTransform="matrix(0 -101.1641 -101.1641 0 110179.3594 514.6763)">
		<stop  offset="0" style="stop-color:#FFFFFF"/>
		<stop  offset="1" style="stop-color:#DEDEDE"/>
	</linearGradient>
	<rect x="136.558" y="413.506" clip-path="url(#SVGID_22_)" fill="url(#SVGID_23_)" width="49.66" height="101.163"/>
</g>
<g>
	<defs>
		<path id="SVGID_24_" d="M246.419,376.309c0.579,0.92,1.186,1.872,1.801,2.855C247.606,378.181,246.998,377.228,246.419,376.309
			L246.419,376.309z"/>
	</defs>
	<clipPath id="SVGID_25_">
		<use xlink:href="#SVGID_24_"  overflow="visible"/>
	</clipPath>
	
		<linearGradient id="SVGID_26_" gradientUnits="userSpaceOnUse" x1="0" y1="1087.521" x2="1" y2="1087.521" gradientTransform="matrix(0 -2.8547 -2.8547 0 3351.8359 379.1633)">
		<stop  offset="0" style="stop-color:#FFFFFF"/>
		<stop  offset="1" style="stop-color:#DEDEDE"/>
	</linearGradient>
	<rect x="246.419" y="376.309" clip-path="url(#SVGID_25_)" fill="url(#SVGID_26_)" width="1.801" height="2.855"/>
</g>
<g>
	<defs>
		<path id="SVGID_27_" d="M60.188,569.223c-0.086,0.603-0.138,1.198-0.164,1.785C60.05,570.421,60.102,569.826,60.188,569.223
			l26.044-181.108L60.188,569.223z"/>
	</defs>
	<clipPath id="SVGID_28_">
		<use xlink:href="#SVGID_27_"  overflow="visible"/>
	</clipPath>
	
		<linearGradient id="SVGID_29_" gradientUnits="userSpaceOnUse" x1="-9.765625e-004" y1="1087.519" x2="0.999" y2="1087.519" gradientTransform="matrix(0 -182.8939 -182.8939 0 198973.9063 570.9746)">
		<stop  offset="0" style="stop-color:#FFFFFF"/>
		<stop  offset="1" style="stop-color:#DEDEDE"/>
	</linearGradient>
	<rect x="60.024" y="388.115" clip-path="url(#SVGID_28_)" fill="url(#SVGID_29_)" width="26.208" height="182.893"/>
</g>
<g>
	<defs>
		<path id="SVGID_30_" d="M269.321,548.003c-0.085,0.603-0.137,1.197-0.163,1.785C269.184,549.201,269.236,548.606,269.321,548.003
			l24.256-168.674L269.321,548.003z"/>
	</defs>
	<clipPath id="SVGID_31_">
		<use xlink:href="#SVGID_30_"  overflow="visible"/>
	</clipPath>
	
		<linearGradient id="SVGID_32_" gradientUnits="userSpaceOnUse" x1="0" y1="1087.52" x2="1" y2="1087.52" gradientTransform="matrix(0 -170.4597 -170.4597 0 185659.6875 549.8293)">
		<stop  offset="0" style="stop-color:#FFFFFF"/>
		<stop  offset="1" style="stop-color:#DEDEDE"/>
	</linearGradient>
	<rect x="269.158" y="379.329" clip-path="url(#SVGID_31_)" fill="url(#SVGID_32_)" width="24.419" height="170.459"/>
</g>
<g>
	<defs>
		<path id="SVGID_33_" d="M302.515,387.433L279.22,549.427c-0.286,1.991,0.169,3.795,1.282,5.079
			c0.734,0.848,2.084,1.856,4.348,1.856c0.257,0,0.525-0.014,0.791-0.041l34.316-3.481c4.131-0.419,7.839-4.024,8.44-8.208
			l21.753-151.268c0.602-4.185-2.347-8.046-6.543-8.573c-10.765-1.354-21.696-2.64-32.814-3.795
			c-0.266-0.028-0.531-0.042-0.794-0.042C306.282,380.955,303.055,383.676,302.515,387.433"/>
	</defs>
	<clipPath id="SVGID_34_">
		<use xlink:href="#SVGID_33_"  overflow="visible"/>
	</clipPath>
	
		<linearGradient id="SVGID_35_" gradientUnits="userSpaceOnUse" x1="4.882813e-004" y1="1087.52" x2="1.0005" y2="1087.52" gradientTransform="matrix(0 -175.408 -175.408 0 191074.4375 556.3626)">
		<stop  offset="0" style="stop-color:#FFFFFF"/>
		<stop  offset="1" style="stop-color:#DEDEDE"/>
	</linearGradient>
	<rect x="278.934" y="380.955" clip-path="url(#SVGID_34_)" fill="url(#SVGID_35_)" width="71.818" height="175.408"/>
</g>
<g>
	<defs>
		<path id="SVGID_36_" d="M742.322,321.584c-25.844,20.277-50.774,35.853-75.138,47.662c-3.009,1.459-4.689,4.725-4.142,8.024
			l22.151,133.245c0.47,2.828,2.683,4.655,5.637,4.655c0.253,0,0.513-0.013,0.772-0.039l30.134-3.058
			c4.153-0.422,7.863-4.046,8.445-8.252l24.272-175.25c0.68-4.913-3.265-8.615-7.522-8.615
			C745.366,319.956,743.758,320.457,742.322,321.584"/>
	</defs>
	<clipPath id="SVGID_37_">
		<use xlink:href="#SVGID_36_"  overflow="visible"/>
	</clipPath>
	
		<linearGradient id="SVGID_38_" gradientUnits="userSpaceOnUse" x1="0" y1="1087.52" x2="1" y2="1087.52" gradientTransform="matrix(0 -195.2143 -195.2143 0 213008.2031 515.1589)">
		<stop  offset="0" style="stop-color:#FFFFFF"/>
		<stop  offset="1" style="stop-color:#DEDEDE"/>
	</linearGradient>
	<rect x="662.495" y="319.956" clip-path="url(#SVGID_37_)" fill="url(#SVGID_38_)" width="92.64" height="195.214"/>
</g>
<g>
	<defs>
		<path id="SVGID_39_" d="M554.55,518.276c-0.087,0.603-0.139,1.198-0.166,1.787C554.411,519.474,554.463,518.879,554.55,518.276
			l16.484-119.554L554.55,518.276z"/>
	</defs>
	<clipPath id="SVGID_40_">
		<use xlink:href="#SVGID_39_"  overflow="visible"/>
	</clipPath>
	
		<linearGradient id="SVGID_41_" gradientUnits="userSpaceOnUse" x1="0" y1="1087.52" x2="1" y2="1087.52" gradientTransform="matrix(0 -121.3405 -121.3405 0 132522.9375 520.0654)">
		<stop  offset="0" style="stop-color:#FFFFFF"/>
		<stop  offset="1" style="stop-color:#DEDEDE"/>
	</linearGradient>
	<rect x="554.384" y="398.722" clip-path="url(#SVGID_40_)" fill="url(#SVGID_41_)" width="16.65" height="121.341"/>
</g>
<g>
	<defs>
		<path id="SVGID_42_" d="M613.707,389.699c-9.06,2.569-18.074,4.69-27.065,6.412c-3.17,0.608-5.592,3.179-6.033,6.378
			l-16.152,117.153c-0.003,0.022-0.007,0.044-0.01,0.065c-0.288,1.994,0.166,3.799,1.281,5.086c0.733,0.848,2.084,1.859,4.348,1.859
			c0.258,0,0.525-0.015,0.791-0.042l29.87-3.03c4.222-0.428,7.939-4.108,8.463-8.377l14.071-117.346
			c0.556-4.63-3.118-8.452-7.478-8.452C615.111,389.405,614.411,389.499,613.707,389.699"/>
	</defs>
	<clipPath id="SVGID_43_">
		<use xlink:href="#SVGID_42_"  overflow="visible"/>
	</clipPath>
	
		<linearGradient id="SVGID_44_" gradientUnits="userSpaceOnUse" x1="0" y1="1087.5181" x2="1" y2="1087.5181" gradientTransform="matrix(0 -137.2462 -137.2462 0 149851.8281 526.6509)">
		<stop  offset="0" style="stop-color:#FFFFFF"/>
		<stop  offset="1" style="stop-color:#DEDEDE"/>
	</linearGradient>
	<rect x="564.159" y="389.405" clip-path="url(#SVGID_43_)" fill="url(#SVGID_44_)" width="59.668" height="137.247"/>
</g>
<g>
	<defs>
		<path id="SVGID_45_" d="M404.094,400.49l-18.476,138.221c-0.263,1.969,0.202,3.751,1.31,5.017
			c0.733,0.838,2.081,1.838,4.332,1.838c0.258,0,0.524-0.013,0.79-0.04l112.12-11.377c4.219-0.429,7.935-4.105,8.463-8.371
			l3.822-30.953c0.241-1.948-0.234-3.708-1.336-4.954c-0.734-0.83-2.079-1.82-4.317-1.82c-0.258,0-0.523,0.014-0.79,0.04
			l-62.174,6.309c-0.337,0.034-0.675,0.052-1.011,0.052c-3.824,0-7.449-2.195-9.145-5.939c-0.832-1.837-1.013-3.905-0.686-5.896
			l12.492-76.173c0.698-4.259-2.305-8.247-6.595-8.726c-10.01-1.119-20.107-2.379-30.32-3.716c-0.333-0.044-0.666-0.065-0.994-0.065
			C407.848,393.936,404.602,396.692,404.094,400.49"/>
	</defs>
	<clipPath id="SVGID_46_">
		<use xlink:href="#SVGID_45_"  overflow="visible"/>
	</clipPath>
	
		<linearGradient id="SVGID_47_" gradientUnits="userSpaceOnUse" x1="0" y1="1087.52" x2="1" y2="1087.52" gradientTransform="matrix(0 -151.6299 -151.6299 0 165351.6406 545.527)">
		<stop  offset="0" style="stop-color:#FFFFFF"/>
		<stop  offset="1" style="stop-color:#DEDEDE"/>
	</linearGradient>
	<rect x="385.355" y="393.936" clip-path="url(#SVGID_46_)" fill="url(#SVGID_47_)" width="131.341" height="151.63"/>
</g>
<g>
	<defs>
		<path id="SVGID_48_" d="M509.003,478.143l-62.175,6.309L509.003,478.143c0.016-0.002,0.032-0.001,0.047-0.002
			C509.035,478.142,509.019,478.141,509.003,478.143"/>
	</defs>
	<clipPath id="SVGID_49_">
		<use xlink:href="#SVGID_48_"  overflow="visible"/>
	</clipPath>
	
		<linearGradient id="SVGID_50_" gradientUnits="userSpaceOnUse" x1="0" y1="1087.52" x2="1" y2="1087.52" gradientTransform="matrix(0 -6.3114 -6.3114 0 7341.7158 484.4531)">
		<stop  offset="0" style="stop-color:#FFFFFF"/>
		<stop  offset="1" style="stop-color:#DEDEDE"/>
	</linearGradient>
	<rect x="446.828" y="478.141" clip-path="url(#SVGID_49_)" fill="url(#SVGID_50_)" width="62.222" height="6.311"/>
</g>
<g>
	<defs>
		<polygon id="SVGID_51_" points="375.707,537.385 375.705,537.392 375.707,537.386 395.183,391.676 		"/>
	</defs>
	<clipPath id="SVGID_52_">
		<use xlink:href="#SVGID_51_"  overflow="visible"/>
	</clipPath>
	
		<linearGradient id="SVGID_53_" gradientUnits="userSpaceOnUse" x1="4.882813e-004" y1="1087.521" x2="1.0005" y2="1087.521" gradientTransform="matrix(0 -145.7162 -145.7162 0 158854.75 537.4512)">
		<stop  offset="0" style="stop-color:#FFFFFF"/>
		<stop  offset="1" style="stop-color:#DEDEDE"/>
	</linearGradient>
	<rect x="375.705" y="391.676" clip-path="url(#SVGID_52_)" fill="url(#SVGID_53_)" width="19.478" height="145.716"/>
</g>
<g>
	<defs>
		<rect id="SVGID_54_" y="0.003" width="1225.734" height="1087.517"/>
	</defs>
	<clipPath id="SVGID_55_">
		<use xlink:href="#SVGID_54_"  overflow="visible"/>
	</clipPath>
	<path clip-path="url(#SVGID_55_)" fill="#DEDEDE" d="M929.11,458.623c-16.855-22.262-7.856-36.845,0.735-44.429
		c4.611-4.07,5.398-10.951,1.941-16.037c-18.013-26.497-8.67-42.166,0.34-49.994c4.783-4.157,5.8-11.192,2.165-16.382
		c-32.853-46.897-2.816-70.211,19.519-74.193c-17.621-4.915-52.421-11.66-73.427,17.306c-15.278,21.069,8.164,39.176,23.533,48.113
		c3.551,2.065,1.479,7.476-2.557,6.711c-9.409-1.783-17.926-7.495-23.654-12.24c-3.722-3.082-9.364-1.02-10.344,3.716
		c-8.549,41.314,19.165,62.346,36.803,71.315c3.645,1.854,1.911,7.358-2.145,6.842c-9.752-1.244-18.647-5.836-24.917-9.933
		c-4.353-2.846-10.183,0.395-10.034,5.6c0.79,27.55,19.068,41.272,32.914,47.735c3.759,1.754,2.138,7.405-1.979,6.911
		c-3.283-0.395-6.905-1.207-10.754-2.662c-3.073-1.16-5.653,2.568-3.572,5.11c38.227,42.237,75.415,48.753,105.644,42.696
		C974.979,494.398,950.689,488.583,929.11,458.623"/>
	<path clip-path="url(#SVGID_55_)" fill="#DEDEDE" d="M1005.439,191.119c-27.706,31.23-22.891,56.483-20.403,64.267
		c0.481,1.508,1.356,2.853,2.55,3.893l14.37,12.517c0.486,0.424,0.687,0.947,0.687,1.458l0.003,0.002
		c7.798-80.348,57.681-101.759,75.407-105.289C1058.99,158.037,1028.462,165.168,1005.439,191.119"/>
</g>
</svg>
